<svg width="75" height="26" viewBox="0 0 75 26" fill="none" xmlns="http://www.w3.org/2000/svg">
<path d="M75 0H71.0208V20.9847H75V0ZM56.3776 13.1299C56.3776 10.5193 58.0391 8.52799 60.7135 8.52799C63.2682 8.52799 65.0781 10.491 65.0781 13.1299C65.0781 15.7687 63.3568 17.7549 60.7135 17.7549C58.1276 17.7549 56.3776 15.7918 56.3776 13.1299ZM65.138 20.9847H68.9401V5.31104H65.0781V6.7191C64.276 5.84035 62.5833 5.04896 60.4766 5.04896C55.6328 5.04896 52.4036 8.50486 52.4036 13.1376C52.4036 18.0015 55.6719 21.2544 60.4766 21.2544C63.0286 21.2544 64.5443 20.201 65.138 19.4378V20.9847ZM48.9922 2.66708H45V5.30333H43.4557V8.79264H45V16.6166C45 19.7231 46.6641 21.1311 49.8411 21.1311C50.5176 21.1358 51.1934 21.0868 51.862 20.9847V17.5262H51C49.4844 17.5262 48.9792 16.9378 48.9792 15.4141V8.79264H51.7734V5.30333H48.9792L48.9922 2.66708ZM42.4167 5.27764C42.2423 5.22922 42.0611 5.20926 41.8802 5.21854C40.8355 5.17408 39.8515 5.70303 39.3229 6.59319V5.30847H35.6146V20.9821H39.5833V11.5753C39.5833 9.99257 40.2083 9.05472 42.4062 8.90826L42.4167 5.27764ZM21.5833 13.1607C21.5833 10.5219 23.276 8.58965 25.8906 8.58965C28.4453 8.58965 30.2266 10.5527 30.2266 13.1607C30.2266 15.7687 28.5339 17.7035 25.9193 17.7035C23.3646 17.7035 21.5833 15.7995 21.5833 13.1607ZM17.6042 13.189C17.6042 17.814 20.9297 21.2493 25.8906 21.2493C30.7917 21.2493 34.2083 17.7317 34.2083 13.1324C34.2083 8.53312 30.9219 5.04125 25.901 5.04125C21.1198 5.04125 17.6146 8.52799 17.6146 13.1864L17.6042 13.189ZM3.86198 13.1581C3.86198 10.491 5.52604 8.53312 8.22656 8.53312C10.8724 8.53312 12.625 10.4962 12.625 13.1581C12.625 15.8201 10.9609 17.76 8.25781 17.76C5.61458 17.76 3.86198 15.8252 3.86198 13.1581ZM3.97917 19.7513C4.72396 20.3962 6.26823 21.2467 8.46615 21.2467C13.5156 21.2467 16.6042 17.6495 16.6042 13.099C16.6042 8.38153 13.4557 5.04125 8.64323 5.04125C5.76302 5.04125 4.39583 6.24118 3.86198 6.83986V5.30333H0V25.6713H3.97917V19.7513Z" fill="white"/>
</svg>
